<mxfile host="app.diagrams.net" agent="Mozilla/5.0 (Windows NT 10.0; Win64; x64) AppleWebKit/537.36 (KHTML, like Gecko) Chrome/133.0.0.0 Safari/537.36" version="26.0.16">
  <diagram name="第 1 页" id="6pw1qu0bfQvHnetczLlp">
    <mxGraphModel dx="2062" dy="655" grid="1" gridSize="10" guides="1" tooltips="1" connect="1" arrows="1" fold="1" page="1" pageScale="1" pageWidth="827" pageHeight="1169" math="0" shadow="0">
      <root>
        <mxCell id="0" />
        <mxCell id="1" parent="0" />
        <mxCell id="D-fjH7bkQ-eQmQR3ktZ1-1" value="電燈" style="rounded=0;whiteSpace=wrap;html=1;" vertex="1" parent="1">
          <mxGeometry x="120" y="70" width="120" height="60" as="geometry" />
        </mxCell>
        <mxCell id="D-fjH7bkQ-eQmQR3ktZ1-2" value="是否開燈" style="rhombus;whiteSpace=wrap;html=1;" vertex="1" parent="1">
          <mxGeometry x="110" y="150" width="140" height="80" as="geometry" />
        </mxCell>
        <mxCell id="D-fjH7bkQ-eQmQR3ktZ1-5" value="燈是否開啟" style="rhombus;whiteSpace=wrap;html=1;" vertex="1" parent="1">
          <mxGeometry x="110" y="270" width="140" height="80" as="geometry" />
        </mxCell>
        <mxCell id="D-fjH7bkQ-eQmQR3ktZ1-6" value="" style="endArrow=none;html=1;rounded=0;entryX=0.5;entryY=1;entryDx=0;entryDy=0;" edge="1" parent="1" source="D-fjH7bkQ-eQmQR3ktZ1-2" target="D-fjH7bkQ-eQmQR3ktZ1-1">
          <mxGeometry width="50" height="50" relative="1" as="geometry">
            <mxPoint x="140" y="180" as="sourcePoint" />
            <mxPoint x="190" y="130" as="targetPoint" />
          </mxGeometry>
        </mxCell>
        <mxCell id="D-fjH7bkQ-eQmQR3ktZ1-7" value="燈是否開啟" style="rhombus;whiteSpace=wrap;html=1;" vertex="1" parent="1">
          <mxGeometry x="-80" y="150" width="140" height="80" as="geometry" />
        </mxCell>
        <mxCell id="D-fjH7bkQ-eQmQR3ktZ1-8" value="" style="endArrow=none;html=1;rounded=0;exitX=1;exitY=0.5;exitDx=0;exitDy=0;" edge="1" parent="1" source="D-fjH7bkQ-eQmQR3ktZ1-7">
          <mxGeometry width="50" height="50" relative="1" as="geometry">
            <mxPoint x="60" y="240" as="sourcePoint" />
            <mxPoint x="110" y="190" as="targetPoint" />
          </mxGeometry>
        </mxCell>
        <mxCell id="D-fjH7bkQ-eQmQR3ktZ1-9" value="" style="endArrow=none;html=1;rounded=0;exitX=1;exitY=0.5;exitDx=0;exitDy=0;" edge="1" parent="1">
          <mxGeometry width="50" height="50" relative="1" as="geometry">
            <mxPoint x="180" y="230" as="sourcePoint" />
            <mxPoint x="180" y="270" as="targetPoint" />
          </mxGeometry>
        </mxCell>
        <mxCell id="D-fjH7bkQ-eQmQR3ktZ1-10" value="否&lt;span style=&quot;color: rgba(0, 0, 0, 0); font-family: monospace; font-size: 0px; text-align: start; text-wrap-mode: nowrap;&quot;&gt;%3CmxGraphModel%3E%3Croot%3E%3CmxCell%20id%3D%220%22%2F%3E%3CmxCell%20id%3D%221%22%20parent%3D%220%22%2F%3E%3CmxCell%20id%3D%222%22%20value%3D%22%22%20style%3D%22endArrow%3Dnone%3Bhtml%3D1%3Brounded%3D0%3BexitX%3D1%3BexitY%3D0.5%3BexitDx%3D0%3BexitDy%3D0%3B%22%20edge%3D%221%22%20parent%3D%221%22%3E%3CmxGeometry%20width%3D%2250%22%20height%3D%2250%22%20relative%3D%221%22%20as%3D%22geometry%22%3E%3CmxPoint%20x%3D%2260%22%20y%3D%22190%22%20as%3D%22sourcePoint%22%2F%3E%3CmxPoint%20x%3D%22110%22%20y%3D%22190%22%20as%3D%22targetPoint%22%2F%3E%3C%2FmxGeometry%3E%3C%2FmxCell%3E%3C%2Froot%3E%3C%2FmxGraphModel%3E&lt;/span&gt;" style="text;html=1;align=center;verticalAlign=middle;whiteSpace=wrap;rounded=0;" vertex="1" parent="1">
          <mxGeometry x="60" y="160" width="60" height="30" as="geometry" />
        </mxCell>
        <mxCell id="D-fjH7bkQ-eQmQR3ktZ1-11" value="是" style="text;html=1;align=center;verticalAlign=middle;whiteSpace=wrap;rounded=0;" vertex="1" parent="1">
          <mxGeometry x="180" y="240" width="60" height="30" as="geometry" />
        </mxCell>
        <mxCell id="D-fjH7bkQ-eQmQR3ktZ1-12" value="" style="endArrow=none;html=1;rounded=0;" edge="1" parent="1">
          <mxGeometry width="50" height="50" relative="1" as="geometry">
            <mxPoint x="179.5" y="400" as="sourcePoint" />
            <mxPoint x="179.5" y="350" as="targetPoint" />
          </mxGeometry>
        </mxCell>
        <mxCell id="D-fjH7bkQ-eQmQR3ktZ1-13" value="" style="endArrow=none;html=1;rounded=0;" edge="1" parent="1">
          <mxGeometry width="50" height="50" relative="1" as="geometry">
            <mxPoint x="300" y="400" as="sourcePoint" />
            <mxPoint x="250" y="310" as="targetPoint" />
            <Array as="points">
              <mxPoint x="300" y="310" />
            </Array>
          </mxGeometry>
        </mxCell>
        <mxCell id="D-fjH7bkQ-eQmQR3ktZ1-14" value="" style="endArrow=none;html=1;rounded=0;" edge="1" parent="1">
          <mxGeometry width="50" height="50" relative="1" as="geometry">
            <mxPoint x="-10.5" y="280" as="sourcePoint" />
            <mxPoint x="-10.5" y="230" as="targetPoint" />
          </mxGeometry>
        </mxCell>
        <mxCell id="D-fjH7bkQ-eQmQR3ktZ1-16" value="" style="endArrow=none;html=1;rounded=0;entryX=0;entryY=0.5;entryDx=0;entryDy=0;" edge="1" parent="1" target="D-fjH7bkQ-eQmQR3ktZ1-7">
          <mxGeometry width="50" height="50" relative="1" as="geometry">
            <mxPoint x="-120" y="280" as="sourcePoint" />
            <mxPoint x="-170" y="200" as="targetPoint" />
            <Array as="points">
              <mxPoint x="-120" y="190" />
            </Array>
          </mxGeometry>
        </mxCell>
        <mxCell id="D-fjH7bkQ-eQmQR3ktZ1-17" value="是" style="text;html=1;align=center;verticalAlign=middle;whiteSpace=wrap;rounded=0;" vertex="1" parent="1">
          <mxGeometry x="180" y="360" width="60" height="30" as="geometry" />
        </mxCell>
        <mxCell id="D-fjH7bkQ-eQmQR3ktZ1-18" value="否&lt;span style=&quot;color: rgba(0, 0, 0, 0); font-family: monospace; font-size: 0px; text-align: start; text-wrap-mode: nowrap;&quot;&gt;%3CmxGraphModel%3E%3Croot%3E%3CmxCell%20id%3D%220%22%2F%3E%3CmxCell%20id%3D%221%22%20parent%3D%220%22%2F%3E%3CmxCell%20id%3D%222%22%20value%3D%22%22%20style%3D%22endArrow%3Dnone%3Bhtml%3D1%3Brounded%3D0%3BexitX%3D1%3BexitY%3D0.5%3BexitDx%3D0%3BexitDy%3D0%3B%22%20edge%3D%221%22%20parent%3D%221%22%3E%3CmxGeometry%20width%3D%2250%22%20height%3D%2250%22%20relative%3D%221%22%20as%3D%22geometry%22%3E%3CmxPoint%20x%3D%2260%22%20y%3D%22190%22%20as%3D%22sourcePoint%22%2F%3E%3CmxPoint%20x%3D%22110%22%20y%3D%22190%22%20as%3D%22targetPoint%22%2F%3E%3C%2FmxGeometry%3E%3C%2FmxCell%3E%3C%2Froot%3E%3C%2FmxGraphModel%3E&lt;/span&gt;" style="text;html=1;align=center;verticalAlign=middle;whiteSpace=wrap;rounded=0;" vertex="1" parent="1">
          <mxGeometry x="260" y="350" width="60" height="30" as="geometry" />
        </mxCell>
        <mxCell id="D-fjH7bkQ-eQmQR3ktZ1-19" value="否&lt;span style=&quot;color: rgba(0, 0, 0, 0); font-family: monospace; font-size: 0px; text-align: start; text-wrap-mode: nowrap;&quot;&gt;%3CmxGraphModel%3E%3Croot%3E%3CmxCell%20id%3D%220%22%2F%3E%3CmxCell%20id%3D%221%22%20parent%3D%220%22%2F%3E%3CmxCell%20id%3D%222%22%20value%3D%22%22%20style%3D%22endArrow%3Dnone%3Bhtml%3D1%3Brounded%3D0%3BexitX%3D1%3BexitY%3D0.5%3BexitDx%3D0%3BexitDy%3D0%3B%22%20edge%3D%221%22%20parent%3D%221%22%3E%3CmxGeometry%20width%3D%2250%22%20height%3D%2250%22%20relative%3D%221%22%20as%3D%22geometry%22%3E%3CmxPoint%20x%3D%2260%22%20y%3D%22190%22%20as%3D%22sourcePoint%22%2F%3E%3CmxPoint%20x%3D%22110%22%20y%3D%22190%22%20as%3D%22targetPoint%22%2F%3E%3C%2FmxGeometry%3E%3C%2FmxCell%3E%3C%2Froot%3E%3C%2FmxGraphModel%3E&lt;/span&gt;" style="text;html=1;align=center;verticalAlign=middle;whiteSpace=wrap;rounded=0;" vertex="1" parent="1">
          <mxGeometry x="-120" y="230" width="60" height="30" as="geometry" />
        </mxCell>
        <mxCell id="D-fjH7bkQ-eQmQR3ktZ1-20" value="是" style="text;html=1;align=center;verticalAlign=middle;whiteSpace=wrap;rounded=0;" vertex="1" parent="1">
          <mxGeometry x="-10" y="240" width="60" height="30" as="geometry" />
        </mxCell>
        <mxCell id="D-fjH7bkQ-eQmQR3ktZ1-22" value="開燈" style="rounded=0;whiteSpace=wrap;html=1;" vertex="1" parent="1">
          <mxGeometry x="240" y="400" width="120" height="60" as="geometry" />
        </mxCell>
        <mxCell id="D-fjH7bkQ-eQmQR3ktZ1-23" value="關燈" style="rounded=0;whiteSpace=wrap;html=1;" vertex="1" parent="1">
          <mxGeometry x="-70" y="280" width="120" height="60" as="geometry" />
        </mxCell>
        <mxCell id="D-fjH7bkQ-eQmQR3ktZ1-24" value="DS18B20溫度感測器" style="rounded=0;whiteSpace=wrap;html=1;" vertex="1" parent="1">
          <mxGeometry x="500" y="70" width="120" height="60" as="geometry" />
        </mxCell>
        <mxCell id="D-fjH7bkQ-eQmQR3ktZ1-25" value="溫度是否低於24度" style="rhombus;whiteSpace=wrap;html=1;" vertex="1" parent="1">
          <mxGeometry x="490" y="160" width="140" height="80" as="geometry" />
        </mxCell>
        <mxCell id="D-fjH7bkQ-eQmQR3ktZ1-26" value="" style="endArrow=none;html=1;rounded=0;exitX=0.5;exitY=0;exitDx=0;exitDy=0;entryX=0.5;entryY=1;entryDx=0;entryDy=0;" edge="1" parent="1" source="D-fjH7bkQ-eQmQR3ktZ1-25" target="D-fjH7bkQ-eQmQR3ktZ1-24">
          <mxGeometry width="50" height="50" relative="1" as="geometry">
            <mxPoint x="560" y="160" as="sourcePoint" />
            <mxPoint x="559.5" y="130" as="targetPoint" />
          </mxGeometry>
        </mxCell>
        <mxCell id="D-fjH7bkQ-eQmQR3ktZ1-27" value="" style="endArrow=none;html=1;rounded=0;exitX=1;exitY=0.5;exitDx=0;exitDy=0;" edge="1" parent="1">
          <mxGeometry width="50" height="50" relative="1" as="geometry">
            <mxPoint x="560" y="240" as="sourcePoint" />
            <mxPoint x="560" y="280" as="targetPoint" />
          </mxGeometry>
        </mxCell>
        <mxCell id="D-fjH7bkQ-eQmQR3ktZ1-28" value="是" style="text;html=1;align=center;verticalAlign=middle;whiteSpace=wrap;rounded=0;" vertex="1" parent="1">
          <mxGeometry x="560" y="250" width="60" height="30" as="geometry" />
        </mxCell>
        <mxCell id="D-fjH7bkQ-eQmQR3ktZ1-29" value="啟動加熱棒" style="rounded=0;whiteSpace=wrap;html=1;" vertex="1" parent="1">
          <mxGeometry x="500" y="280" width="120" height="60" as="geometry" />
        </mxCell>
        <mxCell id="D-fjH7bkQ-eQmQR3ktZ1-30" value="溫度是否大於等於26度" style="rhombus;whiteSpace=wrap;html=1;" vertex="1" parent="1">
          <mxGeometry x="490" y="360" width="140" height="80" as="geometry" />
        </mxCell>
        <mxCell id="D-fjH7bkQ-eQmQR3ktZ1-31" value="" style="endArrow=none;html=1;rounded=0;exitX=1;exitY=0.5;exitDx=0;exitDy=0;" edge="1" parent="1">
          <mxGeometry width="50" height="50" relative="1" as="geometry">
            <mxPoint x="560" y="440" as="sourcePoint" />
            <mxPoint x="560" y="480" as="targetPoint" />
          </mxGeometry>
        </mxCell>
        <mxCell id="D-fjH7bkQ-eQmQR3ktZ1-32" value="是" style="text;html=1;align=center;verticalAlign=middle;whiteSpace=wrap;rounded=0;" vertex="1" parent="1">
          <mxGeometry x="560" y="450" width="60" height="30" as="geometry" />
        </mxCell>
        <mxCell id="D-fjH7bkQ-eQmQR3ktZ1-33" value="" style="endArrow=none;html=1;rounded=0;entryX=0.5;entryY=1;entryDx=0;entryDy=0;" edge="1" parent="1">
          <mxGeometry width="50" height="50" relative="1" as="geometry">
            <mxPoint x="560" y="360" as="sourcePoint" />
            <mxPoint x="560" y="340" as="targetPoint" />
          </mxGeometry>
        </mxCell>
        <mxCell id="D-fjH7bkQ-eQmQR3ktZ1-34" value="關閉加熱棒" style="rounded=0;whiteSpace=wrap;html=1;" vertex="1" parent="1">
          <mxGeometry x="500" y="480" width="120" height="60" as="geometry" />
        </mxCell>
        <mxCell id="D-fjH7bkQ-eQmQR3ktZ1-35" value="" style="endArrow=none;html=1;rounded=0;entryX=1;entryY=0.5;entryDx=0;entryDy=0;" edge="1" parent="1" target="D-fjH7bkQ-eQmQR3ktZ1-29">
          <mxGeometry width="50" height="50" relative="1" as="geometry">
            <mxPoint x="630" y="400" as="sourcePoint" />
            <mxPoint x="670" y="310" as="targetPoint" />
            <Array as="points">
              <mxPoint x="670" y="400" />
              <mxPoint x="670" y="310" />
            </Array>
          </mxGeometry>
        </mxCell>
        <mxCell id="D-fjH7bkQ-eQmQR3ktZ1-36" value="否&lt;span style=&quot;color: rgba(0, 0, 0, 0); font-family: monospace; font-size: 0px; text-align: start; text-wrap-mode: nowrap;&quot;&gt;%3CmxGraphModel%3E%3Croot%3E%3CmxCell%20id%3D%220%22%2F%3E%3CmxCell%20id%3D%221%22%20parent%3D%220%22%2F%3E%3CmxCell%20id%3D%222%22%20value%3D%22%22%20style%3D%22endArrow%3Dnone%3Bhtml%3D1%3Brounded%3D0%3BexitX%3D1%3BexitY%3D0.5%3BexitDx%3D0%3BexitDy%3D0%3B%22%20edge%3D%221%22%20parent%3D%221%22%3E%3CmxGeometry%20width%3D%2250%22%20height%3D%2250%22%20relative%3D%221%22%20as%3D%22geometry%22%3E%3CmxPoint%20x%3D%2260%22%20y%3D%22190%22%20as%3D%22sourcePoint%22%2F%3E%3CmxPoint%20x%3D%22110%22%20y%3D%22190%22%20as%3D%22targetPoint%22%2F%3E%3C%2FmxGeometry%3E%3C%2FmxCell%3E%3C%2Froot%3E%3C%2FmxGraphModel%3E&lt;/span&gt;" style="text;html=1;align=center;verticalAlign=middle;whiteSpace=wrap;rounded=0;" vertex="1" parent="1">
          <mxGeometry x="670" y="340" width="60" height="30" as="geometry" />
        </mxCell>
        <mxCell id="D-fjH7bkQ-eQmQR3ktZ1-37" value="" style="endArrow=none;html=1;rounded=0;entryX=0;entryY=0.5;entryDx=0;entryDy=0;" edge="1" parent="1">
          <mxGeometry width="50" height="50" relative="1" as="geometry">
            <mxPoint x="450" y="290" as="sourcePoint" />
            <mxPoint x="490" y="200" as="targetPoint" />
            <Array as="points">
              <mxPoint x="450" y="200" />
            </Array>
          </mxGeometry>
        </mxCell>
        <mxCell id="D-fjH7bkQ-eQmQR3ktZ1-38" value="否&lt;span style=&quot;color: rgba(0, 0, 0, 0); font-family: monospace; font-size: 0px; text-align: start; text-wrap-mode: nowrap;&quot;&gt;%3CmxGraphModel%3E%3Croot%3E%3CmxCell%20id%3D%220%22%2F%3E%3CmxCell%20id%3D%221%22%20parent%3D%220%22%2F%3E%3CmxCell%20id%3D%222%22%20value%3D%22%22%20style%3D%22endArrow%3Dnone%3Bhtml%3D1%3Brounded%3D0%3BexitX%3D1%3BexitY%3D0.5%3BexitDx%3D0%3BexitDy%3D0%3B%22%20edge%3D%221%22%20parent%3D%221%22%3E%3CmxGeometry%20width%3D%2250%22%20height%3D%2250%22%20relative%3D%221%22%20as%3D%22geometry%22%3E%3CmxPoint%20x%3D%2260%22%20y%3D%22190%22%20as%3D%22sourcePoint%22%2F%3E%3CmxPoint%20x%3D%22110%22%20y%3D%22190%22%20as%3D%22targetPoint%22%2F%3E%3C%2FmxGeometry%3E%3C%2FmxCell%3E%3C%2Froot%3E%3C%2FmxGraphModel%3E&lt;/span&gt;" style="text;html=1;align=center;verticalAlign=middle;whiteSpace=wrap;rounded=0;" vertex="1" parent="1">
          <mxGeometry x="390" y="230" width="60" height="30" as="geometry" />
        </mxCell>
        <mxCell id="D-fjH7bkQ-eQmQR3ktZ1-40" value="TDS感測器" style="rounded=0;whiteSpace=wrap;html=1;" vertex="1" parent="1">
          <mxGeometry x="-70" y="570" width="120" height="60" as="geometry" />
        </mxCell>
        <mxCell id="D-fjH7bkQ-eQmQR3ktZ1-41" value="TDS值是否高於300ppm" style="rhombus;whiteSpace=wrap;html=1;" vertex="1" parent="1">
          <mxGeometry x="-80" y="660" width="140" height="80" as="geometry" />
        </mxCell>
        <mxCell id="D-fjH7bkQ-eQmQR3ktZ1-42" value="" style="endArrow=none;html=1;rounded=0;exitX=0.5;exitY=0;exitDx=0;exitDy=0;entryX=0.5;entryY=1;entryDx=0;entryDy=0;" edge="1" parent="1">
          <mxGeometry width="50" height="50" relative="1" as="geometry">
            <mxPoint x="-10.589999999999918" y="660" as="sourcePoint" />
            <mxPoint x="-10.589999999999918" y="630" as="targetPoint" />
          </mxGeometry>
        </mxCell>
        <mxCell id="D-fjH7bkQ-eQmQR3ktZ1-43" value="" style="endArrow=none;html=1;rounded=0;" edge="1" parent="1">
          <mxGeometry width="50" height="50" relative="1" as="geometry">
            <mxPoint x="-10.5" y="790" as="sourcePoint" />
            <mxPoint x="-10.5" y="740" as="targetPoint" />
          </mxGeometry>
        </mxCell>
        <mxCell id="D-fjH7bkQ-eQmQR3ktZ1-44" value="是" style="text;html=1;align=center;verticalAlign=middle;whiteSpace=wrap;rounded=0;" vertex="1" parent="1">
          <mxGeometry x="-10" y="750" width="60" height="30" as="geometry" />
        </mxCell>
        <mxCell id="D-fjH7bkQ-eQmQR3ktZ1-45" value="發出警報" style="rounded=0;whiteSpace=wrap;html=1;" vertex="1" parent="1">
          <mxGeometry x="-70" y="790" width="120" height="60" as="geometry" />
        </mxCell>
        <mxCell id="D-fjH7bkQ-eQmQR3ktZ1-47" value="" style="endArrow=none;html=1;rounded=0;entryX=0;entryY=0.5;entryDx=0;entryDy=0;" edge="1" parent="1">
          <mxGeometry width="50" height="50" relative="1" as="geometry">
            <mxPoint x="-120" y="790" as="sourcePoint" />
            <mxPoint x="-80" y="700" as="targetPoint" />
            <Array as="points">
              <mxPoint x="-120" y="700" />
            </Array>
          </mxGeometry>
        </mxCell>
        <mxCell id="D-fjH7bkQ-eQmQR3ktZ1-48" value="否&lt;span style=&quot;color: rgba(0, 0, 0, 0); font-family: monospace; font-size: 0px; text-align: start; text-wrap-mode: nowrap;&quot;&gt;%3CmxGraphModel%3E%3Croot%3E%3CmxCell%20id%3D%220%22%2F%3E%3CmxCell%20id%3D%221%22%20parent%3D%220%22%2F%3E%3CmxCell%20id%3D%222%22%20value%3D%22%22%20style%3D%22endArrow%3Dnone%3Bhtml%3D1%3Brounded%3D0%3BexitX%3D1%3BexitY%3D0.5%3BexitDx%3D0%3BexitDy%3D0%3B%22%20edge%3D%221%22%20parent%3D%221%22%3E%3CmxGeometry%20width%3D%2250%22%20height%3D%2250%22%20relative%3D%221%22%20as%3D%22geometry%22%3E%3CmxPoint%20x%3D%2260%22%20y%3D%22190%22%20as%3D%22sourcePoint%22%2F%3E%3CmxPoint%20x%3D%22110%22%20y%3D%22190%22%20as%3D%22targetPoint%22%2F%3E%3C%2FmxGeometry%3E%3C%2FmxCell%3E%3C%2Froot%3E%3C%2FmxGraphModel%3E&lt;/span&gt;" style="text;html=1;align=center;verticalAlign=middle;whiteSpace=wrap;rounded=0;" vertex="1" parent="1">
          <mxGeometry x="-180" y="730" width="60" height="30" as="geometry" />
        </mxCell>
        <mxCell id="D-fjH7bkQ-eQmQR3ktZ1-49" value="餵食器" style="rounded=0;whiteSpace=wrap;html=1;" vertex="1" parent="1">
          <mxGeometry x="230" y="570" width="120" height="60" as="geometry" />
        </mxCell>
        <mxCell id="D-fjH7bkQ-eQmQR3ktZ1-53" value="是否餵食" style="rhombus;whiteSpace=wrap;html=1;" vertex="1" parent="1">
          <mxGeometry x="220" y="660" width="140" height="80" as="geometry" />
        </mxCell>
        <mxCell id="D-fjH7bkQ-eQmQR3ktZ1-54" value="" style="endArrow=none;html=1;rounded=0;exitX=0.5;exitY=0;exitDx=0;exitDy=0;entryX=0.5;entryY=1;entryDx=0;entryDy=0;" edge="1" parent="1">
          <mxGeometry width="50" height="50" relative="1" as="geometry">
            <mxPoint x="289.4100000000001" y="660" as="sourcePoint" />
            <mxPoint x="289.4100000000001" y="630" as="targetPoint" />
          </mxGeometry>
        </mxCell>
        <mxCell id="D-fjH7bkQ-eQmQR3ktZ1-55" value="" style="endArrow=none;html=1;rounded=0;" edge="1" parent="1">
          <mxGeometry width="50" height="50" relative="1" as="geometry">
            <mxPoint x="289.5" y="790" as="sourcePoint" />
            <mxPoint x="289.5" y="740" as="targetPoint" />
          </mxGeometry>
        </mxCell>
        <mxCell id="D-fjH7bkQ-eQmQR3ktZ1-56" value="是" style="text;html=1;align=center;verticalAlign=middle;whiteSpace=wrap;rounded=0;" vertex="1" parent="1">
          <mxGeometry x="290" y="750" width="60" height="30" as="geometry" />
        </mxCell>
        <mxCell id="D-fjH7bkQ-eQmQR3ktZ1-57" value="餵食" style="rounded=0;whiteSpace=wrap;html=1;" vertex="1" parent="1">
          <mxGeometry x="230" y="790" width="120" height="60" as="geometry" />
        </mxCell>
        <mxCell id="D-fjH7bkQ-eQmQR3ktZ1-58" value="" style="endArrow=none;html=1;rounded=0;entryX=0;entryY=0.5;entryDx=0;entryDy=0;" edge="1" parent="1">
          <mxGeometry width="50" height="50" relative="1" as="geometry">
            <mxPoint x="180" y="790" as="sourcePoint" />
            <mxPoint x="220" y="700" as="targetPoint" />
            <Array as="points">
              <mxPoint x="180" y="700" />
            </Array>
          </mxGeometry>
        </mxCell>
        <mxCell id="D-fjH7bkQ-eQmQR3ktZ1-59" value="否&lt;span style=&quot;color: rgba(0, 0, 0, 0); font-family: monospace; font-size: 0px; text-align: start; text-wrap-mode: nowrap;&quot;&gt;%3CmxGraphModel%3E%3Croot%3E%3CmxCell%20id%3D%220%22%2F%3E%3CmxCell%20id%3D%221%22%20parent%3D%220%22%2F%3E%3CmxCell%20id%3D%222%22%20value%3D%22%22%20style%3D%22endArrow%3Dnone%3Bhtml%3D1%3Brounded%3D0%3BexitX%3D1%3BexitY%3D0.5%3BexitDx%3D0%3BexitDy%3D0%3B%22%20edge%3D%221%22%20parent%3D%221%22%3E%3CmxGeometry%20width%3D%2250%22%20height%3D%2250%22%20relative%3D%221%22%20as%3D%22geometry%22%3E%3CmxPoint%20x%3D%2260%22%20y%3D%22190%22%20as%3D%22sourcePoint%22%2F%3E%3CmxPoint%20x%3D%22110%22%20y%3D%22190%22%20as%3D%22targetPoint%22%2F%3E%3C%2FmxGeometry%3E%3C%2FmxCell%3E%3C%2Froot%3E%3C%2FmxGraphModel%3E&lt;/span&gt;" style="text;html=1;align=center;verticalAlign=middle;whiteSpace=wrap;rounded=0;" vertex="1" parent="1">
          <mxGeometry x="120" y="730" width="60" height="30" as="geometry" />
        </mxCell>
      </root>
    </mxGraphModel>
  </diagram>
</mxfile>
